<svg xmlns="http://www.w3.org/2000/svg" xmlns:xlink="http://www.w3.org/1999/xlink" zoomAndPan="magnify" viewBox="0 185 1415 225" preserveAspectRatio="xMidYMid meet" version="1.0"><defs><g/><clipPath id="eb81cd182f"><path d="M 181.253906 212.816406 L 228.503906 212.816406 L 228.503906 354.566406 L 181.253906 354.566406 Z M 181.253906 212.816406 " clip-rule="nonzero"/></clipPath><clipPath id="8c3df58bd5"><path d="M 0.453125 0.816406 L 47.503906 0.816406 L 47.503906 142.566406 L 0.453125 142.566406 Z M 0.453125 0.816406 " clip-rule="nonzero"/></clipPath><clipPath id="0f331503fc"><rect x="0" width="48" y="0" height="143"/></clipPath></defs><g fill="#ffffff" fill-opacity="1"><g transform="translate(12.965374, 354.665786)"><g><path d="M 16.71875 -162.625 L 56.21875 -162.625 L 56.21875 -14.40625 L 156.109375 -14.40625 L 156.109375 0 L 16.71875 0 Z M 16.71875 -162.625 "/></g></g></g><g fill="#ffffff" fill-opacity="1"><g transform="translate(162.806511, 354.665786)"><g/></g></g><g fill="#ffffff" fill-opacity="1"><g transform="translate(220.41974, 354.665786)"><g><path d="M 148.453125 -105.234375 C 145.191406 -106.941406 141.351562 -108.257812 136.9375 -109.1875 C 132.53125 -110.113281 128.390625 -110.578125 124.515625 -110.578125 C 119.410156 -110.578125 115.539062 -110.421875 112.90625 -110.109375 C 120.800781 -107.015625 126.914062 -102.601562 131.25 -96.875 C 135.59375 -91.144531 137.765625 -84.5625 137.765625 -77.125 C 137.765625 -69.382812 135.398438 -62.453125 130.671875 -56.328125 C 125.953125 -50.210938 119.175781 -45.375 110.34375 -41.8125 C 101.519531 -38.25 91.066406 -36.46875 78.984375 -36.46875 C 67.835938 -36.46875 62.265625 -33.679688 62.265625 -28.109375 C 62.265625 -26.710938 63.226562 -25.550781 65.15625 -24.625 C 67.09375 -23.695312 69.613281 -23.234375 72.71875 -23.234375 L 82.46875 -23.234375 C 102.132812 -23.234375 117.582031 -20.484375 128.8125 -14.984375 C 140.039062 -9.484375 145.65625 -1.78125 145.65625 8.125 C 145.65625 19.59375 139.265625 28.613281 126.484375 35.1875 C 113.710938 41.769531 96.484375 45.0625 74.796875 45.0625 C 61.171875 45.0625 49.398438 43.820312 39.484375 41.34375 C 29.578125 38.875 21.988281 35.46875 16.71875 31.125 C 11.457031 26.789062 8.828125 21.757812 8.828125 16.03125 C 8.828125 9.519531 11.921875 4.0625 18.109375 -0.34375 C 24.304688 -4.757812 33.445312 -7.972656 45.53125 -9.984375 C 32.0625 -12.148438 25.328125 -16.953125 25.328125 -24.390625 C 25.328125 -27.953125 27.84375 -31.203125 32.875 -34.140625 C 37.90625 -37.085938 44.367188 -39.023438 52.265625 -39.953125 C 39.566406 -43.210938 30.660156 -47.898438 25.546875 -54.015625 C 20.441406 -60.128906 17.890625 -67.910156 17.890625 -77.359375 C 17.890625 -85.097656 20.441406 -91.910156 25.546875 -97.796875 C 30.660156 -103.679688 37.75 -108.210938 46.8125 -111.390625 C 55.875 -114.566406 66.210938 -116.15625 77.828125 -116.15625 C 83.242188 -116.15625 88.046875 -115.847656 92.234375 -115.234375 C 96.410156 -118.640625 101.398438 -121.347656 107.203125 -123.359375 C 113.015625 -125.367188 119.175781 -126.375 125.6875 -126.375 C 129.25 -126.375 133.195312 -126.140625 137.53125 -125.671875 C 141.863281 -125.210938 145.503906 -124.363281 148.453125 -123.125 Z M 77.828125 -48.78125 C 86.035156 -48.78125 92.34375 -51.140625 96.75 -55.859375 C 101.164062 -60.585938 103.375 -67.445312 103.375 -76.4375 C 103.375 -85.414062 101.164062 -92.265625 96.75 -96.984375 C 92.34375 -101.710938 86.035156 -104.078125 77.828125 -104.078125 C 69.617188 -104.078125 63.34375 -101.710938 59 -96.984375 C 54.664062 -92.265625 52.5 -85.414062 52.5 -76.4375 C 52.5 -67.445312 54.664062 -60.585938 59 -55.859375 C 63.34375 -51.140625 69.617188 -48.78125 77.828125 -48.78125 Z M 82.234375 -9.75 C 67.984375 -9.75 56.753906 -7.695312 48.546875 -3.59375 C 40.335938 0.507812 36.234375 6.046875 36.234375 13.015625 C 36.234375 19.515625 39.753906 24.625 46.796875 28.34375 C 53.847656 32.0625 63.492188 33.921875 75.734375 33.921875 C 87.972656 33.921875 97.578125 31.789062 104.546875 27.53125 C 111.515625 23.269531 115 17.34375 115 9.75 C 115 3.863281 112.054688 -0.851562 106.171875 -4.40625 C 100.285156 -7.96875 92.304688 -9.75 82.234375 -9.75 Z M 82.234375 -9.75 "/></g></g></g><g fill="#ffffff" fill-opacity="1"><g transform="translate(370.260869, 354.665786)"><g><path d="M 82.234375 2.328125 C 67.679688 2.328125 55.0625 -0.0703125 44.375 -4.875 C 33.6875 -9.675781 25.476562 -16.53125 19.75 -25.4375 C 14.019531 -34.34375 11.15625 -44.835938 11.15625 -56.921875 C 11.15625 -68.992188 14.019531 -79.484375 19.75 -88.390625 C 25.476562 -97.296875 33.6875 -104.148438 44.375 -108.953125 C 55.0625 -113.753906 67.679688 -116.15625 82.234375 -116.15625 C 96.796875 -116.15625 109.421875 -113.753906 120.109375 -108.953125 C 130.796875 -104.148438 139.003906 -97.296875 144.734375 -88.390625 C 150.460938 -79.484375 153.328125 -68.992188 153.328125 -56.921875 C 153.328125 -44.835938 150.460938 -34.34375 144.734375 -25.4375 C 139.003906 -16.53125 130.796875 -9.675781 120.109375 -4.875 C 109.421875 -0.0703125 96.796875 2.328125 82.234375 2.328125 Z M 82.234375 -9.75 C 93.546875 -9.75 102.453125 -13.96875 108.953125 -22.40625 C 115.460938 -30.851562 118.71875 -42.359375 118.71875 -56.921875 C 118.71875 -71.472656 115.460938 -82.96875 108.953125 -91.40625 C 102.453125 -99.851562 93.546875 -104.078125 82.234375 -104.078125 C 70.929688 -104.078125 62.023438 -99.851562 55.515625 -91.40625 C 49.015625 -82.96875 45.765625 -71.472656 45.765625 -56.921875 C 45.765625 -42.359375 49.015625 -30.851562 55.515625 -22.40625 C 62.023438 -13.96875 70.929688 -9.75 82.234375 -9.75 Z M 82.234375 -9.75 "/></g></g></g><g fill="#ffffff" fill-opacity="1"><g transform="translate(524.980522, 354.665786)"><g><path d="M 96.875 2.328125 C 71.625 2.328125 51.523438 -2.472656 36.578125 -12.078125 C 21.640625 -21.679688 13.785156 -35.15625 13.015625 -52.5 L 44.375 -52.5 C 45.144531 -38.25 49.828125 -27.945312 58.421875 -21.59375 C 67.015625 -15.25 79.675781 -12.078125 96.40625 -12.078125 C 110.1875 -12.078125 120.328125 -14.476562 126.828125 -19.28125 C 133.335938 -24.082031 136.59375 -31.207031 136.59375 -40.65625 C 136.59375 -45.769531 135.429688 -50.179688 133.109375 -53.890625 C 130.785156 -57.609375 126.253906 -61.015625 119.515625 -64.109375 C 112.785156 -67.210938 102.914062 -70.003906 89.90625 -72.484375 C 69.457031 -76.503906 52.222656 -82.234375 38.203125 -89.671875 C 24.191406 -97.109375 17.1875 -108.023438 17.1875 -122.421875 C 17.1875 -150.609375 42.820312 -164.703125 94.09375 -164.703125 C 119.175781 -164.703125 138.101562 -160.5625 150.875 -152.28125 C 163.65625 -144 170.664062 -132.960938 171.90625 -119.171875 L 141.015625 -119.171875 C 138.847656 -130.484375 133.734375 -138.5 125.671875 -143.21875 C 117.617188 -147.945312 106.625 -150.3125 92.6875 -150.3125 C 80.457031 -150.3125 71.359375 -148.21875 65.390625 -144.03125 C 59.429688 -139.851562 56.453125 -134.507812 56.453125 -128 C 56.453125 -124.4375 57.492188 -121.257812 59.578125 -118.46875 C 61.671875 -115.6875 65.929688 -112.941406 72.359375 -110.234375 C 78.785156 -107.523438 88.195312 -104.773438 100.59375 -101.984375 C 118.09375 -98.109375 131.953125 -94.234375 142.171875 -90.359375 C 152.398438 -86.492188 160.609375 -80.957031 166.796875 -73.75 C 172.992188 -66.550781 176.09375 -56.988281 176.09375 -45.0625 C 176.09375 -35.15625 172.800781 -26.640625 166.21875 -19.515625 C 159.632812 -12.390625 150.378906 -6.96875 138.453125 -3.25 C 126.523438 0.46875 112.664062 2.328125 96.875 2.328125 Z M 96.875 2.328125 "/></g></g></g><g fill="#ffffff" fill-opacity="1"><g transform="translate(704.325315, 354.665786)"><g><path d="M 16.5 -162.625 L 84.796875 -162.625 C 109.265625 -162.625 128.117188 -158.789062 141.359375 -151.125 C 154.597656 -143.457031 161.21875 -130.484375 161.21875 -112.203125 C 161.21875 -94.242188 154.675781 -81.351562 141.59375 -73.53125 C 128.507812 -65.707031 109.578125 -61.796875 84.796875 -61.796875 L 55.984375 -61.796875 L 55.984375 0 L 16.5 0 Z M 85.03125 -76.4375 C 97.414062 -76.4375 106.664062 -78.988281 112.78125 -84.09375 C 118.90625 -89.207031 121.96875 -98.578125 121.96875 -112.203125 C 121.96875 -125.679688 118.945312 -135.050781 112.90625 -140.3125 C 106.863281 -145.582031 97.570312 -148.21875 85.03125 -148.21875 L 55.984375 -148.21875 L 55.984375 -76.4375 Z M 85.03125 -76.4375 "/></g></g></g><g fill="#ffffff" fill-opacity="1"><g transform="translate(860.438881, 354.665786)"><g><path d="M 133.109375 -41.125 L 50.40625 -41.125 L 30.4375 0 L 3.015625 0 L 87.578125 -164.9375 L 112.90625 -164.9375 L 192.59375 0 L 152.390625 0 Z M 126.375 -55.515625 L 92.453125 -128.234375 L 57.375 -55.515625 Z M 126.375 -55.515625 "/></g></g></g><g fill="#ffffff" fill-opacity="1"><g transform="translate(1046.288363, 354.665786)"><g><path d="M 105 2.328125 C 74.957031 2.328125 52.035156 -4.875 36.234375 -19.28125 C 20.441406 -33.6875 12.546875 -54.59375 12.546875 -82 C 12.546875 -108.945312 20.40625 -129.503906 36.125 -143.671875 C 51.84375 -157.847656 74.648438 -164.9375 104.546875 -164.9375 C 130.410156 -164.9375 150.660156 -160.175781 165.296875 -150.65625 C 179.929688 -141.132812 188.410156 -127.3125 190.734375 -109.1875 L 159.828125 -109.1875 C 157.347656 -122.65625 151.460938 -132.910156 142.171875 -139.953125 C 132.878906 -147.003906 120.722656 -150.53125 105.703125 -150.53125 C 88.359375 -150.53125 75.15625 -144.679688 66.09375 -132.984375 C 57.03125 -121.296875 52.5 -104.300781 52.5 -82 C 52.5 -59.238281 57.066406 -41.894531 66.203125 -29.96875 C 75.347656 -18.039062 88.59375 -12.078125 105.9375 -12.078125 C 120.957031 -12.078125 133.070312 -15.597656 142.28125 -22.640625 C 151.5 -29.691406 157.347656 -39.957031 159.828125 -53.4375 L 190.734375 -53.4375 C 188.410156 -35.3125 179.929688 -21.484375 165.296875 -11.953125 C 150.660156 -2.429688 130.5625 2.328125 105 2.328125 Z M 105 2.328125 "/></g></g></g><g fill="#ffffff" fill-opacity="1"><g transform="translate(1235.622525, 354.665786)"><g><path d="M 16.71875 -162.625 L 167.03125 -162.625 L 167.03125 -148.21875 L 56.21875 -148.21875 L 56.21875 -94.3125 L 154.25 -94.3125 L 154.25 -79.921875 L 56.21875 -79.921875 L 56.21875 -14.40625 L 167.03125 -14.40625 L 167.03125 0 L 16.71875 0 Z M 16.71875 -162.625 "/></g></g></g><g clip-path="url(#eb81cd182f)"><g transform="matrix(1, 0, 0, 1, 181, 212)"><g clip-path="url(#0f331503fc)"><g clip-path="url(#8c3df58bd5)"><path fill="#08a698" d="M 0.457031 142.683594 L 0.457031 47.851562 C 0.457031 21.875 21.515625 0.816406 47.496094 0.816406 L 47.496094 95.648438 C 47.496094 121.625 26.433594 142.683594 0.457031 142.683594 Z M 0.457031 142.683594 " fill-opacity="1" fill-rule="nonzero"/></g></g></g></g></svg>