<?xml version="1.0" encoding="utf-8"?>
<!-- Generator: Adobe Illustrator 26.2.1, SVG Export Plug-In . SVG Version: 6.00 Build 0)  -->
<svg version="1.1" xmlns="http://www.w3.org/2000/svg" xmlns:xlink="http://www.w3.org/1999/xlink" x="0px" y="0px"
	 viewBox="140 355 1595 305" xml:space="preserve">
<style type="text/css">
	.st0{fill:#FFFFFF;}
	.st1{fill:#34B780;}
</style>
<g id="Layer_1">
</g>
<g id="Layer_2">
	<g>
		<path class="st0" d="M146.47,372.51v49.74c0,2.65,0.84,5.23,2.4,7.38l202.71,279.14c2.36,3.25,6.14,5.18,10.16,5.18h29.24
			c6.94,0,12.56-5.62,12.56-12.56V541.02c0-2.65-0.84-5.23-2.4-7.38L278.77,365.13c-2.36-3.25-6.14-5.18-10.16-5.18H159.03
			C152.1,359.95,146.47,365.57,146.47,372.51z"/>
		<path class="st1" d="M544.51,362.05L423.39,528.84c-2.45,3.37-0.04,8.1,4.13,8.1h71.1c1.63,0,3.17-0.78,4.13-2.1l66.16-91.1
			c0.94-1.3,2.44-2.08,4.05-2.1l0,0c4.15-0.07,6.64,4.58,4.28,8l-54.65,79.32c-2.33,3.39,0.09,8,4.2,8h64.85
			c1.63,0,3.17-0.78,4.13-2.1l77.83-107.18c0.63-0.87,0.97-1.92,0.97-3v-59.61c0-2.82-2.28-5.1-5.1-5.1H548.64
			C547.01,359.95,545.47,360.73,544.51,362.05z"/>
		<g>
			<path class="st1" d="M861.14,647.63h-49.32l-55.58-163.09h38.1l42.53,132.04l42.54-132.04h37.32L861.14,647.63z"/>
			<path class="st1" d="M1064.4,647.63H934.45V484.53h129.95v30.53h-94.2v36.53h83.24v28.44H970.2v37.05h94.2V647.63z"/>
			<path class="st1" d="M1122.32,610.05c13.83,6.53,26.36,9.13,41.49,9.13c16.96,0,36.53-3.65,52.71-9.91v32.62
				c-16.44,6.26-35.23,9.65-57.15,9.65c-24.27,0-48.54-6-73.59-20.35V500.97c25.05-14.35,49.32-20.35,73.59-20.35
				c21.92,0,40.71,3.65,57.15,9.92v32.62c-16.18-6.26-35.75-10.18-52.71-10.18c-15.13,0-27.66,2.61-41.49,9.13V610.05z"/>
			<path class="st1" d="M1310.18,651.54c-25.31,0-49.06-6.26-71.5-20.35V484.53h35.75v125.52c10.7,6.53,21.92,9.13,35.75,9.13
				c13.83,0,25.05-2.61,35.49-9.13V484.53h35.75v146.65C1358.98,645.28,1335.24,651.54,1310.18,651.54z"/>
			<path class="st1" d="M1448.21,598.57v49.06h-35.75V484.53c17.75-2.35,35.75-3.91,58.45-3.91c31.05,0,60.8,6.78,83.5,20.35v80.37
				c-9.92,6-20.09,10.18-31.05,12.52l33.92,53.76h-39.66l-29.75-48.54c-3.13,0.52-6.26,0.52-9.39,0.52
				C1467.52,599.61,1457.61,599.35,1448.21,598.57z M1448.21,569.6c8.61,0.78,18.27,1.3,29.49,1.3c1.57,0,3.39,0,5.22-0.26
				c14.35-0.26,25.83-3.39,36.53-9.39v-38.62c-10.7-6-22.18-9.13-36.53-9.65h-5.22c-11.22,0-21.14,0.52-29.49,1.04V569.6z"/>
			<path class="st1" d="M1691.4,596.48h-73.59v51.15h-35.49V500.97c24.01-14.35,47.75-20.35,72.28-20.35
				c24.53,0,48.02,6,72.02,20.35v146.65h-35.23V596.48z M1617.81,565.43h73.59v-43.32c-12-6.26-23.75-9.13-36.79-9.13
				c-13.31,0-25.05,2.87-36.79,9.13V565.43z"/>
		</g>
	</g>
</g>
</svg>
