<svg xmlns="http://www.w3.org/2000/svg" xmlns:xlink="http://www.w3.org/1999/xlink" zoomAndPan="magnify" viewBox="70 325 1295 175" preserveAspectRatio="xMidYMid meet" version="1.0"><defs><g/></defs><g fill="#ffffff" fill-opacity="1"><g transform="translate(74.380169, 493.009858)"><g><path d="M 163.015625 -163.015625 L 107.46875 0 L 58.171875 0 L 2.609375 -163.015625 L 40.6875 -163.015625 L 83.203125 -31.03125 L 125.71875 -163.015625 Z M 163.015625 -163.015625 "/></g></g></g><g fill="#ffffff" fill-opacity="1"><g transform="translate(239.749258, 493.009858)"><g><path d="M 145.28125 -30.515625 L 145.28125 0 L 15.390625 0 L 15.390625 -163.015625 L 145.28125 -163.015625 L 145.28125 -132.5 L 51.125 -132.5 L 51.125 -95.984375 L 134.328125 -95.984375 L 134.328125 -67.546875 L 51.125 -67.546875 L 51.125 -30.515625 Z M 145.28125 -30.515625 "/></g></g></g><g fill="#ffffff" fill-opacity="1"><g transform="translate(392.85911, 493.009858)"><g><path d="M 50.078125 -125.453125 L 50.078125 -37.5625 C 57.035156 -34.257812 63.816406 -31.910156 70.421875 -30.515625 C 77.023438 -29.128906 84.066406 -28.4375 91.546875 -28.4375 C 100.066406 -28.4375 108.976562 -29.300781 118.28125 -31.03125 C 127.582031 -32.769531 136.234375 -35.207031 144.234375 -38.34375 L 144.234375 -5.734375 C 136.066406 -2.609375 127.242188 -0.222656 117.765625 1.421875 C 108.285156 3.078125 98.066406 3.90625 87.109375 3.90625 C 74.941406 3.90625 62.769531 2.300781 50.59375 -0.90625 C 38.425781 -4.125 26.082031 -9.300781 13.5625 -16.4375 L 13.5625 -146.578125 C 26.082031 -153.710938 38.425781 -158.890625 50.59375 -162.109375 C 62.769531 -165.328125 74.941406 -166.9375 87.109375 -166.9375 C 98.066406 -166.9375 108.285156 -166.066406 117.765625 -164.328125 C 127.242188 -162.585938 136.066406 -160.148438 144.234375 -157.015625 L 144.234375 -124.421875 C 136.234375 -127.546875 127.582031 -130.019531 118.28125 -131.84375 C 108.976562 -133.675781 100.066406 -134.59375 91.546875 -134.59375 C 84.066406 -134.59375 77.023438 -133.894531 70.421875 -132.5 C 63.816406 -131.101562 57.035156 -128.753906 50.078125 -125.453125 Z M 50.078125 -125.453125 "/></g></g></g><g fill="#ffffff" fill-opacity="1"><g transform="translate(544.143133, 493.009858)"><g><path d="M 157.796875 -16.4375 C 146.671875 -9.476562 135.148438 -4.347656 123.234375 -1.046875 C 111.328125 2.253906 99.113281 3.90625 86.59375 3.90625 C 73.894531 3.90625 61.632812 2.253906 49.8125 -1.046875 C 37.988281 -4.347656 26.425781 -9.476562 15.125 -16.4375 L 15.125 -163.015625 L 50.859375 -163.015625 L 50.859375 -37.5625 C 56.253906 -34.257812 61.816406 -31.910156 67.546875 -30.515625 C 73.285156 -29.128906 79.632812 -28.4375 86.59375 -28.4375 C 93.550781 -28.4375 99.898438 -29.128906 105.640625 -30.515625 C 111.378906 -31.910156 116.851562 -34.257812 122.0625 -37.5625 L 122.0625 -163.015625 L 157.796875 -163.015625 Z M 157.796875 -16.4375 "/></g></g></g><g fill="#ffffff" fill-opacity="1"><g transform="translate(717.076444, 493.009858)"><g><path d="M 81.90625 -48 C 76.507812 -48 71.289062 -48.082031 66.25 -48.25 C 61.207031 -48.425781 56.335938 -48.6875 51.640625 -49.03125 L 51.640625 0 L 15.90625 0 L 15.90625 -163.015625 C 24.78125 -164.234375 33.910156 -165.191406 43.296875 -165.890625 C 52.679688 -166.585938 63.03125 -166.9375 74.34375 -166.9375 C 89.8125 -166.9375 104.757812 -165.238281 119.1875 -161.84375 C 133.625 -158.445312 146.492188 -153.359375 157.796875 -146.578125 L 157.796875 -66.25 C 147.710938 -60.164062 137.367188 -55.992188 126.765625 -53.734375 L 160.671875 0 L 121.03125 0 L 91.296875 -48.515625 C 89.722656 -48.335938 88.15625 -48.207031 86.59375 -48.125 C 85.03125 -48.039062 83.46875 -48 81.90625 -48 Z M 51.640625 -133.546875 L 51.640625 -77.984375 C 55.992188 -77.640625 60.601562 -77.335938 65.46875 -77.078125 C 70.332031 -76.816406 75.550781 -76.6875 81.125 -76.6875 C 81.988281 -76.6875 82.851562 -76.6875 83.71875 -76.6875 C 84.59375 -76.6875 85.460938 -76.769531 86.328125 -76.9375 C 93.460938 -77.113281 99.984375 -77.984375 105.890625 -79.546875 C 111.804688 -81.117188 117.457031 -83.378906 122.84375 -86.328125 L 122.84375 -124.9375 C 112.238281 -130.851562 100.066406 -134.070312 86.328125 -134.59375 L 81.125 -134.59375 C 75.550781 -134.59375 70.285156 -134.503906 65.328125 -134.328125 C 60.378906 -134.148438 55.816406 -133.890625 51.640625 -133.546875 Z M 51.640625 -133.546875 "/></g></g></g><g fill="#ffffff" fill-opacity="1"><g transform="translate(887.662203, 493.009858)"><g><path d="M 124.15625 0 L 124.15625 -51.125 L 50.59375 -51.125 L 50.59375 0 L 15.125 0 L 15.125 -146.578125 C 27.125 -153.710938 39.125 -158.890625 51.125 -162.109375 C 63.125 -165.328125 75.207031 -166.9375 87.375 -166.9375 C 99.71875 -166.9375 111.800781 -165.328125 123.625 -162.109375 C 135.457031 -158.890625 147.367188 -153.710938 159.359375 -146.578125 L 159.359375 0 Z M 50.59375 -125.453125 L 50.59375 -82.15625 L 124.15625 -82.15625 L 124.15625 -125.453125 C 112.5 -131.546875 100.238281 -134.59375 87.375 -134.59375 C 74.332031 -134.59375 62.070312 -131.546875 50.59375 -125.453125 Z M 50.59375 -125.453125 "/></g></g></g><g fill="#ffffff" fill-opacity="1"><g transform="translate(1062.160517, 493.009858)"><g><path d="M 3.390625 -132.5 L 3.390625 -163.015625 L 145.28125 -163.015625 L 145.28125 -132.5 L 92.078125 -132.5 L 92.078125 0 L 56.59375 0 L 56.59375 -132.5 Z M 3.390625 -132.5 "/></g></g></g><g fill="#ffffff" fill-opacity="1"><g transform="translate(1210.836197, 493.009858)"><g><path d="M 145.28125 -30.515625 L 145.28125 0 L 15.390625 0 L 15.390625 -163.015625 L 145.28125 -163.015625 L 145.28125 -132.5 L 51.125 -132.5 L 51.125 -95.984375 L 134.328125 -95.984375 L 134.328125 -67.546875 L 51.125 -67.546875 L 51.125 -30.515625 Z M 145.28125 -30.515625 "/></g></g></g></svg>